0000: 4D 54 68 64 00 00 00 06 00 01 
000A: 00 12 01 E0 4D 54 72 6B 00 00 
0014: 00 63 00 FF 03 00 00 FF 02 12 
001E: 43 6F 70 79 72 69 67 68 74 20 
0028: 28 43 29 20 32 30 32 30 00 FF 
0032: 01 10 81 79 83 54 83 43 83 67 
003C: 96 BC 81 7A 20 55 52 4C 00 FF 
0046: 51 03 0F 42 40 00 FF 06 05 53 
0050: 65 74 75 70 00 FF 58 04 01 03 
005A: 18 08 81 70 FF 51 03 07 A1 20 
0064: 00 FF 06 05 53 74 61 72 74 00 
006E: FF 58 04 04 02 18 08 00 FF 2F 
0078: 00 4D 54 72 6B 00 00 02 A6 00 
0082: FF 03 0C 53 79 73 74 65 6D 20 
008C: 53 65 74 75 70 00 FF 21 01 00 
0096: 00 FF 01 3D 2D 2D 2D 2D 20 52 
00A0: 65 73 65 74 20 2D 2D 2D 2D 2D 
00AA: 2D 2D 2D 2D 2D 2D 2D 2D 2D 2D 
00B4: 2D 2D 2D 2D 2D 2D 2D 2D 2D 2D 
00BE: 2D 2D 2D 2D 2D 2D 2D 2D 2D 2D 
00C8: 2D 2D 2D 2D 2D 2D 2D 2D 2D 2D 
00D2: 2D 2D 2D 2D 2D 00 F0 05 7E 7F 
00DC: 09 01 F7 3C F0 0A 41 10 42 12 
00E6: 40 00 7F 00 41 F7 3C FF 01 40 
00F0: 2D 2D 2D 2D 20 91 53 91 CC 90 
00FA: DD 92 E8 20 2D 2D 2D 2D 2D 2D 
0104: 2D 2D 2D 2D 2D 2D 2D 2D 2D 2D 
010E: 2D 2D 2D 2D 2D 2D 2D 2D 2D 2D 
0118: 2D 2D 2D 2D 2D 2D 2D 2D 2D 2D 
0122: 2D 2D 2D 2D 2D 2D 2D 2D 2D 2D 
012C: 2D 2D 2D 2D 00 F0 07 7F 7F 04 
0136: 01 00 7F F7 04 FF 01 41 2D 2D 
0140: 2D 2D 20 44 72 75 6D 20 92 C7 
014A: 89 C1 20 2D 2D 2D 2D 2D 2D 2D 
0154: 2D 2D 2D 2D 2D 2D 2D 2D 2D 2D 
015E: 2D 2D 2D 2D 2D 2D 2D 2D 2D 2D 
0168: 2D 2D 2D 2D 2D 2D 2D 2D 2D 2D 
0172: 2D 2D 2D 2D 2D 2D 2D 2D 2D 2D 
017C: 2D 2D 2D 00 F0 0A 41 10 42 12 
0186: 40 11 15 00 1A F7 04 F0 0A 41 
0190: 10 42 12 40 12 15 00 19 F7 04 
019A: F0 0A 41 10 42 12 40 13 15 00 
01A4: 18 F7 04 F0 0A 41 10 42 12 40 
01AE: 14 15 00 17 F7 04 F0 0A 41 10 
01B8: 42 12 40 15 15 00 16 F7 04 F0 
01C2: 0A 41 10 42 12 40 16 15 00 15 
01CC: F7 04 F0 0A 41 10 42 12 40 17 
01D6: 15 00 14 F7 04 F0 0A 41 10 42 
01E0: 12 40 18 15 00 13 F7 04 F0 0A 
01EA: 41 10 42 12 40 19 15 00 12 F7 
01F4: 04 F0 0A 41 10 42 12 40 10 15 
01FE: 01 1A F7 04 F0 0A 41 10 42 12 
0208: 40 1A 15 00 11 F7 04 F0 0A 41 
0212: 10 42 12 40 1B 15 00 10 F7 04 
021C: F0 0A 41 10 42 12 40 1C 15 00 
0226: 0F F7 04 F0 0A 41 10 42 12 40 
0230: 1D 15 00 0E F7 04 F0 0A 41 10 
023A: 42 12 40 1E 15 00 0D F7 04 F0 
0244: 0A 41 10 42 12 40 1F 15 00 0C 
024E: F7 04 FF 01 40 2D 2D 2D 2D 20 
0258: 43 48 20 53 65 74 75 70 20 2D 
0262: 2D 2D 2D 2D 2D 2D 2D 2D 2D 2D 
026C: 2D 2D 2D 2D 2D 2D 2D 2D 2D 2D 
0276: 2D 2D 2D 2D 2D 2D 2D 2D 2D 2D 
0280: 2D 2D 2D 2D 2D 2D 2D 2D 2D 2D 
028A: 2D 2D 2D 2D 2D 2D 2D 2D 2D 16 
0294: FF 01 3D 2D 2D 2D 2D 20 4C 61 
029E: 79 65 72 20 2D 2D 2D 2D 2D 2D 
02A8: 2D 2D 2D 2D 2D 2D 2D 2D 2D 2D 
02B2: 2D 2D 2D 2D 2D 2D 2D 2D 2D 2D 
02BC: 2D 2D 2D 2D 2D 2D 2D 2D 2D 2D 
02C6: 2D 2D 2D 2D 2D 2D 2D 2D 2D 2D 
02D0: 2D 2D 2D 2D 1C FF 01 4B 2D 2D 
02DA: 2D 2D 20 45 6E 64 20 6F 66 20 
02E4: 53 79 73 74 65 6D 20 53 65 74 
02EE: 75 70 20 2D 2D 2D 2D 2D 2D 2D 
02F8: 2D 2D 2D 2D 2D 2D 2D 2D 2D 2D 
0302: 2D 2D 2D 2D 2D 2D 2D 2D 2D 2D 
030C: 2D 2D 2D 2D 2D 2D 2D 2D 2D 2D 
0316: 2D 2D 2D 2D 2D 2D 2D 2D 2D 2D 
0320: 2D 2D 2D 02 FF 2F 00 4D 54 72 
032A: 6B 00 00 01 4A 00 FF 03 04 6D 
0334: 61 69 6E 00 FF 21 01 00 00 FF 
033E: 01 44 2D 2D 2D 2D 20 53 79 73 
0348: 74 65 6D 20 53 65 74 75 70 20 
0352: 2D 2D 2D 2D 2D 2D 2D 2D 2D 2D 
035C: 2D 2D 2D 2D 2D 2D 2D 2D 2D 2D 
0366: 2D 2D 2D 2D 2D 2D 2D 2D 2D 2D 
0370: 2D 2D 2D 2D 2D 2D 2D 2D 2D 2D 
037A: 2D 2D 2D 2D 2D 2D 2D 2D 2D 2D 
0384: 81 3C FF 01 40 2D 2D 2D 2D 20 
038E: 43 48 20 53 65 74 75 70 20 2D 
0398: 2D 2D 2D 2D 2D 2D 2D 2D 2D 2D 
03A2: 2D 2D 2D 2D 2D 2D 2D 2D 2D 2D 
03AC: 2D 2D 2D 2D 2D 2D 2D 2D 2D 2D 
03B6: 2D 2D 2D 2D 2D 2D 2D 2D 2D 2D 
03C0: 2D 2D 2D 2D 2D 2D 2D 2D 2D 00 
03CA: B0 79 00 01 B0 00 00 00 B0 20 
03D4: 00 00 C0 00 03 B0 0A 40 01 B0 
03DE: 07 64 01 B0 5B 00 01 B0 0B 7F 
03E8: 01 B0 01 00 01 B0 65 00 00 B0 
03F2: 64 01 00 B0 06 40 00 B0 26 00 
03FC: 04 B0 65 00 00 B0 64 02 00 B0 
0406: 06 40 03 B0 65 00 00 B0 64 00 
0410: 00 B0 06 0C 03 E0 00 40 01 B0 
041A: 65 7F 00 B0 64 7F 02 FF 01 47 
0424: 2D 2D 2D 2D 20 45 6E 64 20 6F 
042E: 66 20 43 48 20 53 65 74 75 70 
0438: 20 2D 2D 2D 2D 2D 2D 2D 2D 2D 
0442: 2D 2D 2D 2D 2D 2D 2D 2D 2D 2D 
044C: 2D 2D 2D 2D 2D 2D 2D 2D 2D 2D 
0456: 2D 2D 2D 2D 2D 2D 2D 2D 2D 2D 
0460: 2D 2D 2D 2D 2D 2D 2D 2D 2D 2D 
046A: 2D 1E 90 4C 7F 83 60 80 4C 00 
0474: 88 38 FF 2F 00 4D 54 72 6B 00 
047E: 00 01 45 00 FF 03 00 00 FF 21 
0488: 01 00 00 FF 01 44 2D 2D 2D 2D 
0492: 20 53 79 73 74 65 6D 20 53 65 
049C: 74 75 70 20 2D 2D 2D 2D 2D 2D 
04A6: 2D 2D 2D 2D 2D 2D 2D 2D 2D 2D 
04B0: 2D 2D 2D 2D 2D 2D 2D 2D 2D 2D 
04BA: 2D 2D 2D 2D 2D 2D 2D 2D 2D 2D 
04C4: 2D 2D 2D 2D 2D 2D 2D 2D 2D 2D 
04CE: 2D 2D 2D 2D 00 91 4B 64 81 3C 
04D8: FF 01 40 2D 2D 2D 2D 20 43 48 
04E2: 20 53 65 74 75 70 20 2D 2D 2D 
04EC: 2D 2D 2D 2D 2D 2D 2D 2D 2D 2D 
04F6: 2D 2D 2D 2D 2D 2D 2D 2D 2D 2D 
0500: 2D 2D 2D 2D 2D 2D 2D 2D 2D 2D 
050A: 2D 2D 2D 2D 2D 2D 2D 2D 2D 2D 
0514: 2D 2D 2D 2D 2D 2D 2D 00 B1 79 
051E: 00 01 B1 00 00 00 B1 20 00 00 
0528: C1 00 03 B1 0A 40 01 B1 07 64 
0532: 01 B1 5B 00 01 B1 0B 7F 01 B1 
053C: 01 00 01 B1 65 00 00 B1 64 01 
0546: 00 B1 06 40 00 B1 26 00 04 B1 
0550: 65 00 00 B1 64 02 00 B1 06 40 
055A: 03 B1 65 00 00 B1 64 00 00 B1 
0564: 06 0C 03 E1 00 40 01 B1 65 7F 
056E: 00 B1 64 7F 02 FF 01 47 2D 2D 
0578: 2D 2D 20 45 6E 64 20 6F 66 20 
0582: 43 48 20 53 65 74 75 70 20 2D 
058C: 2D 2D 2D 2D 2D 2D 2D 2D 2D 2D 
0596: 2D 2D 2D 2D 2D 2D 2D 2D 2D 2D 
05A0: 2D 2D 2D 2D 2D 2D 2D 2D 2D 2D 
05AA: 2D 2D 2D 2D 2D 2D 2D 2D 2D 2D 
05B4: 2D 2D 2D 2D 2D 2D 2D 2D 2D 82 
05BE: 0E 81 4B 00 00 FF 2F 00 4D 54 
05C8: 72 6B 00 00 01 3C 00 FF 03 00 
05D2: 00 FF 21 01 00 00 FF 01 44 2D 
05DC: 2D 2D 2D 20 53 79 73 74 65 6D 
05E6: 20 53 65 74 75 70 20 2D 2D 2D 
05F0: 2D 2D 2D 2D 2D 2D 2D 2D 2D 2D 
05FA: 2D 2D 2D 2D 2D 2D 2D 2D 2D 2D 
0604: 2D 2D 2D 2D 2D 2D 2D 2D 2D 2D 
060E: 2D 2D 2D 2D 2D 2D 2D 2D 2D 2D 
0618: 2D 2D 2D 2D 2D 2D 2D 81 3C FF 
0622: 01 40 2D 2D 2D 2D 20 43 48 20 
062C: 53 65 74 75 70 20 2D 2D 2D 2D 
0636: 2D 2D 2D 2D 2D 2D 2D 2D 2D 2D 
0640: 2D 2D 2D 2D 2D 2D 2D 2D 2D 2D 
064A: 2D 2D 2D 2D 2D 2D 2D 2D 2D 2D 
0654: 2D 2D 2D 2D 2D 2D 2D 2D 2D 2D 
065E: 2D 2D 2D 2D 2D 2D 00 B2 79 00 
0668: 01 B2 00 00 00 B2 20 00 00 C2 
0672: 00 03 B2 0A 40 01 B2 07 64 01 
067C: B2 5B 00 01 B2 0B 7F 01 B2 01 
0686: 00 01 B2 65 00 00 B2 64 01 00 
0690: B2 06 40 00 B2 26 00 04 B2 65 
069A: 00 00 B2 64 02 00 B2 06 40 03 
06A4: B2 65 00 00 B2 64 00 00 B2 06 
06AE: 0C 03 E2 00 40 01 B2 65 7F 00 
06B8: B2 64 7F 02 FF 01 47 2D 2D 2D 
06C2: 2D 20 45 6E 64 20 6F 66 20 43 
06CC: 48 20 53 65 74 75 70 20 2D 2D 
06D6: 2D 2D 2D 2D 2D 2D 2D 2D 2D 2D 
06E0: 2D 2D 2D 2D 2D 2D 2D 2D 2D 2D 
06EA: 2D 2D 2D 2D 2D 2D 2D 2D 2D 2D 
06F4: 2D 2D 2D 2D 2D 2D 2D 2D 2D 2D 
06FE: 2D 2D 2D 2D 2D 2D 2D 2D 1E FF 
0708: 2F 00 4D 54 72 6B 00 00 01 3C 
0712: 00 FF 03 00 00 FF 21 01 00 00 
071C: FF 01 44 2D 2D 2D 2D 20 53 79 
0726: 73 74 65 6D 20 53 65 74 75 70 
0730: 20 2D 2D 2D 2D 2D 2D 2D 2D 2D 
073A: 2D 2D 2D 2D 2D 2D 2D 2D 2D 2D 
0744: 2D 2D 2D 2D 2D 2D 2D 2D 2D 2D 
074E: 2D 2D 2D 2D 2D 2D 2D 2D 2D 2D 
0758: 2D 2D 2D 2D 2D 2D 2D 2D 2D 2D 
0762: 2D 81 3C FF 01 40 2D 2D 2D 2D 
076C: 20 43 48 20 53 65 74 75 70 20 
0776: 2D 2D 2D 2D 2D 2D 2D 2D 2D 2D 
0780: 2D 2D 2D 2D 2D 2D 2D 2D 2D 2D 
078A: 2D 2D 2D 2D 2D 2D 2D 2D 2D 2D 
0794: 2D 2D 2D 2D 2D 2D 2D 2D 2D 2D 
079E: 2D 2D 2D 2D 2D 2D 2D 2D 2D 2D 
07A8: 00 B3 79 00 01 B3 00 00 00 B3 
07B2: 20 00 00 C3 00 03 B3 0A 40 01 
07BC: B3 07 64 01 B3 5B 00 01 B3 0B 
07C6: 7F 01 B3 01 00 01 B3 65 00 00 
07D0: B3 64 01 00 B3 06 40 00 B3 26 
07DA: 00 04 B3 65 00 00 B3 64 02 00 
07E4: B3 06 40 03 B3 65 00 00 B3 64 
07EE: 00 00 B3 06 0C 03 E3 00 40 01 
07F8: B3 65 7F 00 B3 64 7F 02 FF 01 
0802: 47 2D 2D 2D 2D 20 45 6E 64 20 
080C: 6F 66 20 43 48 20 53 65 74 75 
0816: 70 20 2D 2D 2D 2D 2D 2D 2D 2D 
0820: 2D 2D 2D 2D 2D 2D 2D 2D 2D 2D 
082A: 2D 2D 2D 2D 2D 2D 2D 2D 2D 2D 
0834: 2D 2D 2D 2D 2D 2D 2D 2D 2D 2D 
083E: 2D 2D 2D 2D 2D 2D 2D 2D 2D 2D 
0848: 2D 2D 1E FF 2F 00 4D 54 72 6B 
0852: 00 00 01 3C 00 FF 03 00 00 FF 
085C: 21 01 00 00 FF 01 44 2D 2D 2D 
0866: 2D 20 53 79 73 74 65 6D 20 53 
0870: 65 74 75 70 20 2D 2D 2D 2D 2D 
087A: 2D 2D 2D 2D 2D 2D 2D 2D 2D 2D 
0884: 2D 2D 2D 2D 2D 2D 2D 2D 2D 2D 
088E: 2D 2D 2D 2D 2D 2D 2D 2D 2D 2D 
0898: 2D 2D 2D 2D 2D 2D 2D 2D 2D 2D 
08A2: 2D 2D 2D 2D 2D 81 3C FF 01 40 
08AC: 2D 2D 2D 2D 20 43 48 20 53 65 
08B6: 74 75 70 20 2D 2D 2D 2D 2D 2D 
08C0: 2D 2D 2D 2D 2D 2D 2D 2D 2D 2D 
08CA: 2D 2D 2D 2D 2D 2D 2D 2D 2D 2D 
08D4: 2D 2D 2D 2D 2D 2D 2D 2D 2D 2D 
08DE: 2D 2D 2D 2D 2D 2D 2D 2D 2D 2D 
08E8: 2D 2D 2D 2D 00 B4 79 00 01 B4 
08F2: 00 00 00 B4 20 00 00 C4 00 03 
08FC: B4 0A 40 01 B4 07 64 01 B4 5B 
0906: 00 01 B4 0B 7F 01 B4 01 00 01 
0910: B4 65 00 00 B4 64 01 00 B4 06 
091A: 40 00 B4 26 00 04 B4 65 00 00 
0924: B4 64 02 00 B4 06 40 03 B4 65 
092E: 00 00 B4 64 00 00 B4 06 0C 03 
0938: E4 00 40 01 B4 65 7F 00 B4 64 
0942: 7F 02 FF 01 47 2D 2D 2D 2D 20 
094C: 45 6E 64 20 6F 66 20 43 48 20 
0956: 53 65 74 75 70 20 2D 2D 2D 2D 
0960: 2D 2D 2D 2D 2D 2D 2D 2D 2D 2D 
096A: 2D 2D 2D 2D 2D 2D 2D 2D 2D 2D 
0974: 2D 2D 2D 2D 2D 2D 2D 2D 2D 2D 
097E: 2D 2D 2D 2D 2D 2D 2D 2D 2D 2D 
0988: 2D 2D 2D 2D 2D 2D 1E FF 2F 00 
0992: 4D 54 72 6B 00 00 01 3C 00 FF 
099C: 03 00 00 FF 21 01 00 00 FF 01 
09A6: 44 2D 2D 2D 2D 20 53 79 73 74 
09B0: 65 6D 20 53 65 74 75 70 20 2D 
09BA: 2D 2D 2D 2D 2D 2D 2D 2D 2D 2D 
09C4: 2D 2D 2D 2D 2D 2D 2D 2D 2D 2D 
09CE: 2D 2D 2D 2D 2D 2D 2D 2D 2D 2D 
09D8: 2D 2D 2D 2D 2D 2D 2D 2D 2D 2D 
09E2: 2D 2D 2D 2D 2D 2D 2D 2D 2D 81 
09EC: 3C FF 01 40 2D 2D 2D 2D 20 43 
09F6: 48 20 53 65 74 75 70 20 2D 2D 
0A00: 2D 2D 2D 2D 2D 2D 2D 2D 2D 2D 
0A0A: 2D 2D 2D 2D 2D 2D 2D 2D 2D 2D 
0A14: 2D 2D 2D 2D 2D 2D 2D 2D 2D 2D 
0A1E: 2D 2D 2D 2D 2D 2D 2D 2D 2D 2D 
0A28: 2D 2D 2D 2D 2D 2D 2D 2D 00 B5 
0A32: 79 00 01 B5 00 00 00 B5 20 00 
0A3C: 00 C5 00 03 B5 0A 40 01 B5 07 
0A46: 64 01 B5 5B 00 01 B5 0B 7F 01 
0A50: B5 01 00 01 B5 65 00 00 B5 64 
0A5A: 01 00 B5 06 40 00 B5 26 00 04 
0A64: B5 65 00 00 B5 64 02 00 B5 06 
0A6E: 40 03 B5 65 00 00 B5 64 00 00 
0A78: B5 06 0C 03 E5 00 40 01 B5 65 
0A82: 7F 00 B5 64 7F 02 FF 01 47 2D 
0A8C: 2D 2D 2D 20 45 6E 64 20 6F 66 
0A96: 20 43 48 20 53 65 74 75 70 20 
0AA0: 2D 2D 2D 2D 2D 2D 2D 2D 2D 2D 
0AAA: 2D 2D 2D 2D 2D 2D 2D 2D 2D 2D 
0AB4: 2D 2D 2D 2D 2D 2D 2D 2D 2D 2D 
0ABE: 2D 2D 2D 2D 2D 2D 2D 2D 2D 2D 
0AC8: 2D 2D 2D 2D 2D 2D 2D 2D 2D 2D 
0AD2: 1E FF 2F 00 4D 54 72 6B 00 00 
0ADC: 01 3C 00 FF 03 00 00 FF 21 01 
0AE6: 00 00 FF 01 44 2D 2D 2D 2D 20 
0AF0: 53 79 73 74 65 6D 20 53 65 74 
0AFA: 75 70 20 2D 2D 2D 2D 2D 2D 2D 
0B04: 2D 2D 2D 2D 2D 2D 2D 2D 2D 2D 
0B0E: 2D 2D 2D 2D 2D 2D 2D 2D 2D 2D 
0B18: 2D 2D 2D 2D 2D 2D 2D 2D 2D 2D 
0B22: 2D 2D 2D 2D 2D 2D 2D 2D 2D 2D 
0B2C: 2D 2D 2D 81 3C FF 01 40 2D 2D 
0B36: 2D 2D 20 43 48 20 53 65 74 75 
0B40: 70 20 2D 2D 2D 2D 2D 2D 2D 2D 
0B4A: 2D 2D 2D 2D 2D 2D 2D 2D 2D 2D 
0B54: 2D 2D 2D 2D 2D 2D 2D 2D 2D 2D 
0B5E: 2D 2D 2D 2D 2D 2D 2D 2D 2D 2D 
0B68: 2D 2D 2D 2D 2D 2D 2D 2D 2D 2D 
0B72: 2D 2D 00 B6 79 00 01 B6 00 00 
0B7C: 00 B6 20 00 00 C6 00 03 B6 0A 
0B86: 40 01 B6 07 64 01 B6 5B 00 01 
0B90: B6 0B 7F 01 B6 01 00 01 B6 65 
0B9A: 00 00 B6 64 01 00 B6 06 40 00 
0BA4: B6 26 00 04 B6 65 00 00 B6 64 
0BAE: 02 00 B6 06 40 03 B6 65 00 00 
0BB8: B6 64 00 00 B6 06 0C 03 E6 00 
0BC2: 40 01 B6 65 7F 00 B6 64 7F 02 
0BCC: FF 01 47 2D 2D 2D 2D 20 45 6E 
0BD6: 64 20 6F 66 20 43 48 20 53 65 
0BE0: 74 75 70 20 2D 2D 2D 2D 2D 2D 
0BEA: 2D 2D 2D 2D 2D 2D 2D 2D 2D 2D 
0BF4: 2D 2D 2D 2D 2D 2D 2D 2D 2D 2D 
0BFE: 2D 2D 2D 2D 2D 2D 2D 2D 2D 2D 
0C08: 2D 2D 2D 2D 2D 2D 2D 2D 2D 2D 
0C12: 2D 2D 2D 2D 1E FF 2F 00 4D 54 
0C1C: 72 6B 00 00 01 3C 00 FF 03 00 
0C26: 00 FF 21 01 00 00 FF 01 44 2D 
0C30: 2D 2D 2D 20 53 79 73 74 65 6D 
0C3A: 20 53 65 74 75 70 20 2D 2D 2D 
0C44: 2D 2D 2D 2D 2D 2D 2D 2D 2D 2D 
0C4E: 2D 2D 2D 2D 2D 2D 2D 2D 2D 2D 
0C58: 2D 2D 2D 2D 2D 2D 2D 2D 2D 2D 
0C62: 2D 2D 2D 2D 2D 2D 2D 2D 2D 2D 
0C6C: 2D 2D 2D 2D 2D 2D 2D 81 3C FF 
0C76: 01 40 2D 2D 2D 2D 20 43 48 20 
0C80: 53 65 74 75 70 20 2D 2D 2D 2D 
0C8A: 2D 2D 2D 2D 2D 2D 2D 2D 2D 2D 
0C94: 2D 2D 2D 2D 2D 2D 2D 2D 2D 2D 
0C9E: 2D 2D 2D 2D 2D 2D 2D 2D 2D 2D 
0CA8: 2D 2D 2D 2D 2D 2D 2D 2D 2D 2D 
0CB2: 2D 2D 2D 2D 2D 2D 00 B7 79 00 
0CBC: 01 B7 00 00 00 B7 20 00 00 C7 
0CC6: 00 03 B7 0A 40 01 B7 07 64 01 
0CD0: B7 5B 00 01 B7 0B 7F 01 B7 01 
0CDA: 00 01 B7 65 00 00 B7 64 01 00 
0CE4: B7 06 40 00 B7 26 00 04 B7 65 
0CEE: 00 00 B7 64 02 00 B7 06 40 03 
0CF8: B7 65 00 00 B7 64 00 00 B7 06 
0D02: 0C 03 E7 00 40 01 B7 65 7F 00 
0D0C: B7 64 7F 02 FF 01 47 2D 2D 2D 
0D16: 2D 20 45 6E 64 20 6F 66 20 43 
0D20: 48 20 53 65 74 75 70 20 2D 2D 
0D2A: 2D 2D 2D 2D 2D 2D 2D 2D 2D 2D 
0D34: 2D 2D 2D 2D 2D 2D 2D 2D 2D 2D 
0D3E: 2D 2D 2D 2D 2D 2D 2D 2D 2D 2D 
0D48: 2D 2D 2D 2D 2D 2D 2D 2D 2D 2D 
0D52: 2D 2D 2D 2D 2D 2D 2D 2D 1E FF 
0D5C: 2F 00 4D 54 72 6B 00 00 01 3C 
0D66: 00 FF 03 00 00 FF 21 01 00 00 
0D70: FF 01 44 2D 2D 2D 2D 20 53 79 
0D7A: 73 74 65 6D 20 53 65 74 75 70 
0D84: 20 2D 2D 2D 2D 2D 2D 2D 2D 2D 
0D8E: 2D 2D 2D 2D 2D 2D 2D 2D 2D 2D 
0D98: 2D 2D 2D 2D 2D 2D 2D 2D 2D 2D 
0DA2: 2D 2D 2D 2D 2D 2D 2D 2D 2D 2D 
0DAC: 2D 2D 2D 2D 2D 2D 2D 2D 2D 2D 
0DB6: 2D 81 3C FF 01 40 2D 2D 2D 2D 
0DC0: 20 43 48 20 53 65 74 75 70 20 
0DCA: 2D 2D 2D 2D 2D 2D 2D 2D 2D 2D 
0DD4: 2D 2D 2D 2D 2D 2D 2D 2D 2D 2D 
0DDE: 2D 2D 2D 2D 2D 2D 2D 2D 2D 2D 
0DE8: 2D 2D 2D 2D 2D 2D 2D 2D 2D 2D 
0DF2: 2D 2D 2D 2D 2D 2D 2D 2D 2D 2D 
0DFC: 00 B8 79 00 01 B8 00 00 00 B8 
0E06: 20 00 00 C8 00 03 B8 0A 40 01 
0E10: B8 07 64 01 B8 5B 00 01 B8 0B 
0E1A: 7F 01 B8 01 00 01 B8 65 00 00 
0E24: B8 64 01 00 B8 06 40 00 B8 26 
0E2E: 00 04 B8 65 00 00 B8 64 02 00 
0E38: B8 06 40 03 B8 65 00 00 B8 64 
0E42: 00 00 B8 06 0C 03 E8 00 40 01 
0E4C: B8 65 7F 00 B8 64 7F 02 FF 01 
0E56: 47 2D 2D 2D 2D 20 45 6E 64 20 
0E60: 6F 66 20 43 48 20 53 65 74 75 
0E6A: 70 20 2D 2D 2D 2D 2D 2D 2D 2D 
0E74: 2D 2D 2D 2D 2D 2D 2D 2D 2D 2D 
0E7E: 2D 2D 2D 2D 2D 2D 2D 2D 2D 2D 
0E88: 2D 2D 2D 2D 2D 2D 2D 2D 2D 2D 
0E92: 2D 2D 2D 2D 2D 2D 2D 2D 2D 2D 
0E9C: 2D 2D 1E FF 2F 00 4D 54 72 6B 
0EA6: 00 00 01 38 00 FF 03 00 00 FF 
0EB0: 21 01 00 00 FF 01 44 2D 2D 2D 
0EBA: 2D 20 53 79 73 74 65 6D 20 53 
0EC4: 65 74 75 70 20 2D 2D 2D 2D 2D 
0ECE: 2D 2D 2D 2D 2D 2D 2D 2D 2D 2D 
0ED8: 2D 2D 2D 2D 2D 2D 2D 2D 2D 2D 
0EE2: 2D 2D 2D 2D 2D 2D 2D 2D 2D 2D 
0EEC: 2D 2D 2D 2D 2D 2D 2D 2D 2D 2D 
0EF6: 2D 2D 2D 2D 2D 81 3C FF 01 40 
0F00: 2D 2D 2D 2D 20 43 48 20 53 65 
0F0A: 74 75 70 20 2D 2D 2D 2D 2D 2D 
0F14: 2D 2D 2D 2D 2D 2D 2D 2D 2D 2D 
0F1E: 2D 2D 2D 2D 2D 2D 2D 2D 2D 2D 
0F28: 2D 2D 2D 2D 2D 2D 2D 2D 2D 2D 
0F32: 2D 2D 2D 2D 2D 2D 2D 2D 2D 2D 
0F3C: 2D 2D 2D 2D 00 B9 79 00 01 B9 
0F46: 20 00 00 C9 00 03 B9 0A 40 01 
0F50: B9 07 64 01 B9 5B 00 01 B9 0B 
0F5A: 7F 01 B9 01 00 01 B9 65 00 00 
0F64: B9 64 01 00 B9 06 40 00 B9 26 
0F6E: 00 04 B9 65 00 00 B9 64 02 00 
0F78: B9 06 40 03 B9 65 00 00 B9 64 
0F82: 00 00 B9 06 0C 03 E9 00 40 01 
0F8C: B9 65 7F 00 B9 64 7F 02 FF 01 
0F96: 47 2D 2D 2D 2D 20 45 6E 64 20 
0FA0: 6F 66 20 43 48 20 53 65 74 75 
0FAA: 70 20 2D 2D 2D 2D 2D 2D 2D 2D 
0FB4: 2D 2D 2D 2D 2D 2D 2D 2D 2D 2D 
0FBE: 2D 2D 2D 2D 2D 2D 2D 2D 2D 2D 
0FC8: 2D 2D 2D 2D 2D 2D 2D 2D 2D 2D 
0FD2: 2D 2D 2D 2D 2D 2D 2D 2D 2D 2D 
0FDC: 2D 2D 1E FF 2F 00 4D 54 72 6B 
0FE6: 00 00 01 3C 00 FF 03 00 00 FF 
0FF0: 21 01 00 00 FF 01 44 2D 2D 2D 
0FFA: 2D 20 53 79 73 74 65 6D 20 53 
1004: 65 74 75 70 20 2D 2D 2D 2D 2D 
100E: 2D 2D 2D 2D 2D 2D 2D 2D 2D 2D 
1018: 2D 2D 2D 2D 2D 2D 2D 2D 2D 2D 
1022: 2D 2D 2D 2D 2D 2D 2D 2D 2D 2D 
102C: 2D 2D 2D 2D 2D 2D 2D 2D 2D 2D 
1036: 2D 2D 2D 2D 2D 81 3C FF 01 40 
1040: 2D 2D 2D 2D 20 43 48 20 53 65 
104A: 74 75 70 20 2D 2D 2D 2D 2D 2D 
1054: 2D 2D 2D 2D 2D 2D 2D 2D 2D 2D 
105E: 2D 2D 2D 2D 2D 2D 2D 2D 2D 2D 
1068: 2D 2D 2D 2D 2D 2D 2D 2D 2D 2D 
1072: 2D 2D 2D 2D 2D 2D 2D 2D 2D 2D 
107C: 2D 2D 2D 2D 00 BA 79 00 01 BA 
1086: 00 00 00 BA 20 00 00 CA 00 03 
1090: BA 0A 40 01 BA 07 64 01 BA 5B 
109A: 00 01 BA 0B 7F 01 BA 01 00 01 
10A4: BA 65 00 00 BA 64 01 00 BA 06 
10AE: 40 00 BA 26 00 04 BA 65 00 00 
10B8: BA 64 02 00 BA 06 40 03 BA 65 
10C2: 00 00 BA 64 00 00 BA 06 0C 03 
10CC: EA 00 40 01 BA 65 7F 00 BA 64 
10D6: 7F 02 FF 01 47 2D 2D 2D 2D 20 
10E0: 45 6E 64 20 6F 66 20 43 48 20 
10EA: 53 65 74 75 70 20 2D 2D 2D 2D 
10F4: 2D 2D 2D 2D 2D 2D 2D 2D 2D 2D 
10FE: 2D 2D 2D 2D 2D 2D 2D 2D 2D 2D 
1108: 2D 2D 2D 2D 2D 2D 2D 2D 2D 2D 
1112: 2D 2D 2D 2D 2D 2D 2D 2D 2D 2D 
111C: 2D 2D 2D 2D 2D 2D 1E FF 2F 00 
1126: 4D 54 72 6B 00 00 01 3C 00 FF 
1130: 03 00 00 FF 21 01 00 00 FF 01 
113A: 44 2D 2D 2D 2D 20 53 79 73 74 
1144: 65 6D 20 53 65 74 75 70 20 2D 
114E: 2D 2D 2D 2D 2D 2D 2D 2D 2D 2D 
1158: 2D 2D 2D 2D 2D 2D 2D 2D 2D 2D 
1162: 2D 2D 2D 2D 2D 2D 2D 2D 2D 2D 
116C: 2D 2D 2D 2D 2D 2D 2D 2D 2D 2D 
1176: 2D 2D 2D 2D 2D 2D 2D 2D 2D 81 
1180: 3C FF 01 40 2D 2D 2D 2D 20 43 
118A: 48 20 53 65 74 75 70 20 2D 2D 
1194: 2D 2D 2D 2D 2D 2D 2D 2D 2D 2D 
119E: 2D 2D 2D 2D 2D 2D 2D 2D 2D 2D 
11A8: 2D 2D 2D 2D 2D 2D 2D 2D 2D 2D 
11B2: 2D 2D 2D 2D 2D 2D 2D 2D 2D 2D 
11BC: 2D 2D 2D 2D 2D 2D 2D 2D 00 BB 
11C6: 79 00 01 BB 00 00 00 BB 20 00 
11D0: 00 CB 00 03 BB 0A 40 01 BB 07 
11DA: 64 01 BB 5B 00 01 BB 0B 7F 01 
11E4: BB 01 00 01 BB 65 00 00 BB 64 
11EE: 01 00 BB 06 40 00 BB 26 00 04 
11F8: BB 65 00 00 BB 64 02 00 BB 06 
1202: 40 03 BB 65 00 00 BB 64 00 00 
120C: BB 06 0C 03 EB 00 40 01 BB 65 
1216: 7F 00 BB 64 7F 02 FF 01 47 2D 
1220: 2D 2D 2D 20 45 6E 64 20 6F 66 
122A: 20 43 48 20 53 65 74 75 70 20 
1234: 2D 2D 2D 2D 2D 2D 2D 2D 2D 2D 
123E: 2D 2D 2D 2D 2D 2D 2D 2D 2D 2D 
1248: 2D 2D 2D 2D 2D 2D 2D 2D 2D 2D 
1252: 2D 2D 2D 2D 2D 2D 2D 2D 2D 2D 
125C: 2D 2D 2D 2D 2D 2D 2D 2D 2D 2D 
1266: 1E FF 2F 00 4D 54 72 6B 00 00 
1270: 01 3C 00 FF 03 00 00 FF 21 01 
127A: 00 00 FF 01 44 2D 2D 2D 2D 20 
1284: 53 79 73 74 65 6D 20 53 65 74 
128E: 75 70 20 2D 2D 2D 2D 2D 2D 2D 
1298: 2D 2D 2D 2D 2D 2D 2D 2D 2D 2D 
12A2: 2D 2D 2D 2D 2D 2D 2D 2D 2D 2D 
12AC: 2D 2D 2D 2D 2D 2D 2D 2D 2D 2D 
12B6: 2D 2D 2D 2D 2D 2D 2D 2D 2D 2D 
12C0: 2D 2D 2D 81 3C FF 01 40 2D 2D 
12CA: 2D 2D 20 43 48 20 53 65 74 75 
12D4: 70 20 2D 2D 2D 2D 2D 2D 2D 2D 
12DE: 2D 2D 2D 2D 2D 2D 2D 2D 2D 2D 
12E8: 2D 2D 2D 2D 2D 2D 2D 2D 2D 2D 
12F2: 2D 2D 2D 2D 2D 2D 2D 2D 2D 2D 
12FC: 2D 2D 2D 2D 2D 2D 2D 2D 2D 2D 
1306: 2D 2D 00 BC 79 00 01 BC 00 00 
1310: 00 BC 20 00 00 CC 00 03 BC 0A 
131A: 40 01 BC 07 64 01 BC 5B 00 01 
1324: BC 0B 7F 01 BC 01 00 01 BC 65 
132E: 00 00 BC 64 01 00 BC 06 40 00 
1338: BC 26 00 04 BC 65 00 00 BC 64 
1342: 02 00 BC 06 40 03 BC 65 00 00 
134C: BC 64 00 00 BC 06 0C 03 EC 00 
1356: 40 01 BC 65 7F 00 BC 64 7F 02 
1360: FF 01 47 2D 2D 2D 2D 20 45 6E 
136A: 64 20 6F 66 20 43 48 20 53 65 
1374: 74 75 70 20 2D 2D 2D 2D 2D 2D 
137E: 2D 2D 2D 2D 2D 2D 2D 2D 2D 2D 
1388: 2D 2D 2D 2D 2D 2D 2D 2D 2D 2D 
1392: 2D 2D 2D 2D 2D 2D 2D 2D 2D 2D 
139C: 2D 2D 2D 2D 2D 2D 2D 2D 2D 2D 
13A6: 2D 2D 2D 2D 1E FF 2F 00 4D 54 
13B0: 72 6B 00 00 01 3C 00 FF 03 00 
13BA: 00 FF 21 01 00 00 FF 01 44 2D 
13C4: 2D 2D 2D 20 53 79 73 74 65 6D 
13CE: 20 53 65 74 75 70 20 2D 2D 2D 
13D8: 2D 2D 2D 2D 2D 2D 2D 2D 2D 2D 
13E2: 2D 2D 2D 2D 2D 2D 2D 2D 2D 2D 
13EC: 2D 2D 2D 2D 2D 2D 2D 2D 2D 2D 
13F6: 2D 2D 2D 2D 2D 2D 2D 2D 2D 2D 
1400: 2D 2D 2D 2D 2D 2D 2D 81 3C FF 
140A: 01 40 2D 2D 2D 2D 20 43 48 20 
1414: 53 65 74 75 70 20 2D 2D 2D 2D 
141E: 2D 2D 2D 2D 2D 2D 2D 2D 2D 2D 
1428: 2D 2D 2D 2D 2D 2D 2D 2D 2D 2D 
1432: 2D 2D 2D 2D 2D 2D 2D 2D 2D 2D 
143C: 2D 2D 2D 2D 2D 2D 2D 2D 2D 2D 
1446: 2D 2D 2D 2D 2D 2D 00 BD 79 00 
1450: 01 BD 00 00 00 BD 20 00 00 CD 
145A: 00 03 BD 0A 40 01 BD 07 64 01 
1464: BD 5B 00 01 BD 0B 7F 01 BD 01 
146E: 00 01 BD 65 00 00 BD 64 01 00 
1478: BD 06 40 00 BD 26 00 04 BD 65 
1482: 00 00 BD 64 02 00 BD 06 40 03 
148C: BD 65 00 00 BD 64 00 00 BD 06 
1496: 0C 03 ED 00 40 01 BD 65 7F 00 
14A0: BD 64 7F 02 FF 01 47 2D 2D 2D 
14AA: 2D 20 45 6E 64 20 6F 66 20 43 
14B4: 48 20 53 65 74 75 70 20 2D 2D 
14BE: 2D 2D 2D 2D 2D 2D 2D 2D 2D 2D 
14C8: 2D 2D 2D 2D 2D 2D 2D 2D 2D 2D 
14D2: 2D 2D 2D 2D 2D 2D 2D 2D 2D 2D 
14DC: 2D 2D 2D 2D 2D 2D 2D 2D 2D 2D 
14E6: 2D 2D 2D 2D 2D 2D 2D 2D 1E FF 
14F0: 2F 00 4D 54 72 6B 00 00 01 3C 
14FA: 00 FF 03 00 00 FF 21 01 00 00 
1504: FF 01 44 2D 2D 2D 2D 20 53 79 
150E: 73 74 65 6D 20 53 65 74 75 70 
1518: 20 2D 2D 2D 2D 2D 2D 2D 2D 2D 
1522: 2D 2D 2D 2D 2D 2D 2D 2D 2D 2D 
152C: 2D 2D 2D 2D 2D 2D 2D 2D 2D 2D 
1536: 2D 2D 2D 2D 2D 2D 2D 2D 2D 2D 
1540: 2D 2D 2D 2D 2D 2D 2D 2D 2D 2D 
154A: 2D 81 3C FF 01 40 2D 2D 2D 2D 
1554: 20 43 48 20 53 65 74 75 70 20 
155E: 2D 2D 2D 2D 2D 2D 2D 2D 2D 2D 
1568: 2D 2D 2D 2D 2D 2D 2D 2D 2D 2D 
1572: 2D 2D 2D 2D 2D 2D 2D 2D 2D 2D 
157C: 2D 2D 2D 2D 2D 2D 2D 2D 2D 2D 
1586: 2D 2D 2D 2D 2D 2D 2D 2D 2D 2D 
1590: 00 BE 79 00 01 BE 00 00 00 BE 
159A: 20 00 00 CE 00 03 BE 0A 40 01 
15A4: BE 07 64 01 BE 5B 00 01 BE 0B 
15AE: 7F 01 BE 01 00 01 BE 65 00 00 
15B8: BE 64 01 00 BE 06 40 00 BE 26 
15C2: 00 04 BE 65 00 00 BE 64 02 00 
15CC: BE 06 40 03 BE 65 00 00 BE 64 
15D6: 00 00 BE 06 0C 03 EE 00 40 01 
15E0: BE 65 7F 00 BE 64 7F 02 FF 01 
15EA: 47 2D 2D 2D 2D 20 45 6E 64 20 
15F4: 6F 66 20 43 48 20 53 65 74 75 
15FE: 70 20 2D 2D 2D 2D 2D 2D 2D 2D 
1608: 2D 2D 2D 2D 2D 2D 2D 2D 2D 2D 
1612: 2D 2D 2D 2D 2D 2D 2D 2D 2D 2D 
161C: 2D 2D 2D 2D 2D 2D 2D 2D 2D 2D 
1626: 2D 2D 2D 2D 2D 2D 2D 2D 2D 2D 
1630: 2D 2D 1E FF 2F 00 4D 54 72 6B 
163A: 00 00 01 3C 00 FF 03 00 00 FF 
1644: 21 01 00 00 FF 01 44 2D 2D 2D 
164E: 2D 20 53 79 73 74 65 6D 20 53 
1658: 65 74 75 70 20 2D 2D 2D 2D 2D 
1662: 2D 2D 2D 2D 2D 2D 2D 2D 2D 2D 
166C: 2D 2D 2D 2D 2D 2D 2D 2D 2D 2D 
1676: 2D 2D 2D 2D 2D 2D 2D 2D 2D 2D 
1680: 2D 2D 2D 2D 2D 2D 2D 2D 2D 2D 
168A: 2D 2D 2D 2D 2D 81 3C FF 01 40 
1694: 2D 2D 2D 2D 20 43 48 20 53 65 
169E: 74 75 70 20 2D 2D 2D 2D 2D 2D 
16A8: 2D 2D 2D 2D 2D 2D 2D 2D 2D 2D 
16B2: 2D 2D 2D 2D 2D 2D 2D 2D 2D 2D 
16BC: 2D 2D 2D 2D 2D 2D 2D 2D 2D 2D 
16C6: 2D 2D 2D 2D 2D 2D 2D 2D 2D 2D 
16D0: 2D 2D 2D 2D 00 BF 79 00 01 BF 
16DA: 00 00 00 BF 20 00 00 CF 00 03 
16E4: BF 0A 40 01 BF 07 64 01 BF 5B 
16EE: 00 01 BF 0B 7F 01 BF 01 00 01 
16F8: BF 65 00 00 BF 64 01 00 BF 06 
1702: 40 00 BF 26 00 04 BF 65 00 00 
170C: BF 64 02 00 BF 06 40 03 BF 65 
1716: 00 00 BF 64 00 00 BF 06 0C 03 
1720: EF 00 40 01 BF 65 7F 00 BF 64 
172A: 7F 02 FF 01 47 2D 2D 2D 2D 20 
1734: 45 6E 64 20 6F 66 20 43 48 20 
173E: 53 65 74 75 70 20 2D 2D 2D 2D 
1748: 2D 2D 2D 2D 2D 2D 2D 2D 2D 2D 
1752: 2D 2D 2D 2D 2D 2D 2D 2D 2D 2D 
175C: 2D 2D 2D 2D 2D 2D 2D 2D 2D 2D 
1766: 2D 2D 2D 2D 2D 2D 2D 2D 2D 2D 
1770: 2D 2D 2D 2D 2D 2D 1E FF 2F 00 
177A: 
